<svg width="129" height="72" viewBox="0 0 129 72" fill="none" xmlns="http://www.w3.org/2000/svg">
<path d="M11.313 10.48V17.14H22.977V21.82H11.313V31H5.48105V5.8H24.525V10.48H11.313ZM46.3711 31.432C43.7551 31.432 41.3911 30.868 39.2791 29.74C37.1911 28.612 35.5471 27.064 34.3471 25.096C33.1711 23.104 32.5831 20.872 32.5831 18.4C32.5831 15.928 33.1711 13.708 34.3471 11.74C35.5471 9.748 37.1911 8.188 39.2791 7.06C41.3911 5.932 43.7551 5.368 46.3711 5.368C48.9871 5.368 51.3391 5.932 53.4271 7.06C55.5151 8.188 57.1591 9.748 58.3591 11.74C59.5591 13.708 60.1591 15.928 60.1591 18.4C60.1591 20.872 59.5591 23.104 58.3591 25.096C57.1591 27.064 55.5151 28.612 53.4271 29.74C51.3391 30.868 48.9871 31.432 46.3711 31.432ZM46.3711 26.464C47.8591 26.464 49.2031 26.128 50.4031 25.456C51.6031 24.76 52.5391 23.8 53.2111 22.576C53.9071 21.352 54.2551 19.96 54.2551 18.4C54.2551 16.84 53.9071 15.448 53.2111 14.224C52.5391 13 51.6031 12.052 50.4031 11.38C49.2031 10.684 47.8591 10.336 46.3711 10.336C44.8831 10.336 43.5391 10.684 42.3391 11.38C41.1391 12.052 40.1911 13 39.4951 14.224C38.8231 15.448 38.4871 16.84 38.4871 18.4C38.4871 19.96 38.8231 21.352 39.4951 22.576C40.1911 23.8 41.1391 24.76 42.3391 25.456C43.5391 26.128 44.8831 26.464 46.3711 26.464ZM102.753 5.8H114.201C116.937 5.8 119.349 6.328 121.437 7.384C123.549 8.416 125.181 9.88 126.333 11.776C127.509 13.672 128.097 15.88 128.097 18.4C128.097 20.92 127.509 23.128 126.333 25.024C125.181 26.92 123.549 28.396 121.437 29.452C119.349 30.484 116.937 31 114.201 31H102.753V5.8ZM113.913 26.212C116.433 26.212 118.437 25.516 119.925 24.124C121.437 22.708 122.193 20.8 122.193 18.4C122.193 16 121.437 14.104 119.925 12.712C118.437 11.296 116.433 10.588 113.913 10.588H108.585V26.212H113.913Z" fill="#AD0426"/>
<path d="M28.5639 63.868V67H7.50394V64.552L23.3439 44.932H7.75594V41.8H28.0959V44.248L12.3279 63.868H28.5639ZM92.224 41.8V67H89.272L74.152 48.208V67H70.552V41.8H73.504L88.624 60.592V41.8H92.224ZM123.995 63.868V67H105.707V41.8H123.491V44.932H109.307V52.672H121.943V55.732H109.307V63.868H123.995Z" fill="white"/>
<path fill-rule="evenodd" clip-rule="evenodd" d="M49 40C56.1132 40 61.9019 44.113 62 49.2279V58.4557C61.6566 63.4652 55.7698 68 49 68C42.966 68 36.2943 63.4652 36 58.4557V49.2279C36.0981 44.113 41.8868 40 49 40ZM49.2457 54.2373C53.1702 54.2373 58.8608 50.5989 58.8608 47.2241C58.8608 43.8494 52.7287 41.1601 49.0004 41.1601C45.5174 41.1601 38.9928 43.8494 38.9928 47.2241C38.9928 50.5989 45.5174 54.2373 49.2457 54.2373Z" fill="white"/>
<path d="M52.8996 47.4405C52.8996 48.7459 50.6604 50.1818 49.1302 50.1818C47.6747 50.1818 45.0996 48.7459 45.0996 47.4405C45.0996 46.1352 47.6374 45.0909 49.0183 45.0909C50.5111 45.0909 52.8996 46.1352 52.8996 47.4405Z" fill="#AD0426"/>
<g clip-path="url(#clip0_102:547)">
<path fill-rule="evenodd" clip-rule="evenodd" d="M88.017 18.2356C90.6822 17.6851 93.3473 17.1346 96.0424 16.9263C96.0424 21.0029 95.8627 24.4844 93.8264 28.1147C92.2393 30.9416 89.664 33.2329 86.6994 34.5124C84.0642 35.6729 81.1894 36.268 78.3146 35.8812C75.4998 35.4944 72.9843 34.6017 70.6486 32.9353C55.9154 22.58 67.8037 -2.47497 85.262 4.07147C84.4854 7.48642 83.2178 10.8263 81.9571 14.1479C81.2734 15.9493 80.5918 17.7452 79.9916 19.5449C82.6867 19.3366 85.3518 18.7861 88.017 18.2356ZM88.7499 28.2083C86.3737 32.8855 80.4995 33.7083 76.8329 32.7916C74.8171 32.2877 73.946 31.7385 72.8301 31.0349C72.7899 31.0096 72.7495 30.984 72.7086 30.9583C60.3334 23.1666 69.4999 2.99997 82.3336 5.74997L82.2379 6.04744C80.6426 11.008 78.807 16.7158 77.7501 21.7916C80.2025 21.5687 82.6128 21.2204 84.9897 20.8769C87.4992 20.5142 89.9715 20.157 92.4167 19.9583C92.4167 20.9403 91.9586 23.625 90.532 24.3057C87.8332 23.1666 86.3739 26.4688 88.7499 28.2083Z" fill="white"/>
<path fill-rule="evenodd" clip-rule="evenodd" d="M89.5739 4.07123C88.7605 5.87427 88.7896 6.42154 88.8417 7.40195C88.8644 7.82921 88.8915 8.33874 88.8552 9.07033C88.6496 9.59804 88.2382 9.9115 87.8229 10.228C87.5122 10.4647 87.1993 10.7032 86.9686 11.0343C86.4481 11.7902 86.1016 12.7589 85.768 13.6915C85.6026 14.1539 85.4404 14.6074 85.2617 15.0216C87.1013 14.8821 88.9342 14.5463 90.7668 14.2105L90.7668 14.2105L90.7668 14.2105C92.8422 13.8302 94.9171 13.4501 97.0004 13.3553C96.8207 8.83227 93.7962 5.49954 89.5739 4.07123ZM92.4499 9.46664C90.7117 9.90125 91.5596 12.7065 93.3826 12.0743C95.036 11.5607 94.1033 9.03202 92.4499 9.46664ZM88.4667 11.2833C87.3079 11.5731 87.8732 13.4432 89.0885 13.0218C90.1907 12.6793 89.5689 10.9936 88.4667 11.2833Z" fill="white"/>
<path fill-rule="evenodd" clip-rule="evenodd" d="M72.3057 14.1715C70.1496 15.094 71.3774 18.754 73.7131 17.8316C75.8992 16.9686 74.6115 13.1896 72.3057 14.1715Z" fill="white"/>
<path fill-rule="evenodd" clip-rule="evenodd" d="M73.8133 22.1049C72.1963 22.6405 73.1845 24.9615 74.7117 24.3367C76.0892 23.801 75.1908 21.6586 73.8133 22.1049Z" fill="white"/>
<path fill-rule="evenodd" clip-rule="evenodd" d="M80.3769 25.5456C79.0593 26.4086 80.5865 28.4915 81.8742 27.6286C83.2517 26.7359 81.7844 24.6232 80.3769 25.5456Z" fill="white"/>
</g>
<defs>
<clipPath id="clip0_102:547">
<rect width="33" height="33" fill="white" transform="translate(64 3)"/>
</clipPath>
</defs>
</svg>
