<svg width="1443" height="1316" viewBox="0 0 1443 1316" fill="none" xmlns="http://www.w3.org/2000/svg">
<path fill-rule="evenodd" clip-rule="evenodd" d="M497.189 466.986C525.518 400.937 561.307 338.136 571.173 268.507C585.207 169.45 460.819 14.3334 567.088 -26.3596C697.804 -76.4137 816.884 76.3357 946.203 124.899C996.9 143.937 1048.42 192.644 1100.03 173.775C1236.78 123.778 1301.58 -62.8977 1448.95 -58.904C1551.22 -56.1324 1491.53 114.602 1550.25 185.976C1618.44 268.862 1809.68 281.401 1813.18 383.827C1816.73 487.634 1635.95 523.935 1564.7 608.906C1512.22 671.501 1495.28 748.135 1451.36 815.375C1393 904.735 1375.85 1097.68 1262.29 1071.92C1099.39 1034.95 1129.36 796.052 993.313 711.436C931.614 673.061 850.997 761.225 774.559 768.56C633.502 782.095 442.138 867.519 354.922 772.692C276.04 686.926 452.475 571.236 497.189 466.986Z" fill="#FF9900" fill-opacity="0.5"/>
<path fill-rule="evenodd" clip-rule="evenodd" d="M1285.44 -120.145C1332.02 -56.7224 1371.44 10.9765 1431.56 61.1335C1517.09 132.488 1731.64 121.972 1711.43 235.231C1686.56 374.544 1477.16 382.051 1360.21 460.831C1314.37 491.715 1240.14 505.424 1229.47 559.891C1201.23 704.213 1341.29 870.714 1256.37 991.398C1197.43 1075.15 1069.56 922.513 970.022 928.591C854.429 935.65 737.293 1087.84 638.932 1029.1C539.244 969.574 604.636 796.721 563.874 686.065C533.846 604.548 471.029 544.261 431.911 467.1C379.925 364.557 207.708 234.082 294.512 154.745C419.038 40.9304 627.453 209.779 782.046 147.086C852.157 118.653 813.553 -1.75726 848.747 -70.018C913.694 -195.985 938.665 -407.247 1075.98 -423.009C1200.17 -437.265 1211.92 -220.251 1285.44 -120.145Z" fill="#FF9900" fill-opacity="0.5"/>
<path fill-rule="evenodd" clip-rule="evenodd" d="M1382.08 -130.627C1428.3 -66.5641 1467.27 1.91758 1527.24 52.3555C1612.54 124.109 1828.36 111.337 1806.94 226.739C1780.59 368.688 1569.98 378.35 1451.64 459.615C1405.24 491.474 1330.47 506.137 1319.23 561.643C1289.43 708.72 1428.65 876.73 1342.09 1000.31C1282.03 1086.07 1154.94 932.048 1054.8 939.193C938.506 947.492 819.261 1103.43 720.932 1044.63C621.278 985.048 688.697 808.59 648.784 696.425C619.381 613.797 556.806 553.081 518.221 474.972C466.944 371.168 295.052 240.115 383.095 158.575C509.4 41.599 717.316 211.335 873.356 146.068C944.125 116.468 906.475 -5.63872 942.521 -75.4137C1009.04 -204.175 1036.19 -419.311 1174.4 -436.672C1299.41 -452.374 1309.12 -231.743 1382.08 -130.627Z" fill="#FF9900"/>
</svg>
