<svg width="129" height="110" viewBox="0 0 129 110" fill="none" xmlns="http://www.w3.org/2000/svg">
<path d="M-5.60059 -25.0254C-5.60059 -35.5374 2.99142 -44.4366 13.8874 -43.7646C56.5786 -41.1342 94.0186 -26.7726 123.347 1.23064C131.67 9.16985 130.028 22.1394 121.398 28.7634L119.055 30.5682L115.244 26.3346L115.177 26.2674C86.9914 -2.67656 46.1434 -19.6686 2.76101 -19.6686H-5.60059V-25.0254ZM-5.60059 -10.0782V95.397C-5.60059 107.224 7.89701 114.002 17.3914 106.927L32.8282 95.4258V95.445C32.8282 97.9911 33.8396 100.433 35.64 102.233C37.4403 104.034 39.8821 105.045 42.4282 105.045C44.9743 105.045 47.4161 104.034 49.2164 102.233C51.0168 100.433 52.0282 97.9911 52.0282 95.445V76.2258C52.0379 75.0086 52.5098 73.8405 53.3482 72.958C54.1867 72.0755 55.3291 71.5446 56.5442 71.4726C57.7594 71.4006 58.9565 71.793 59.8932 72.5703C60.83 73.3476 61.4365 74.4519 61.5898 75.6594V81.0354C61.5898 83.5815 62.6012 86.0233 64.4016 87.8237C66.2019 89.624 68.6437 90.6354 71.1898 90.6354C73.7359 90.6354 76.1777 89.624 77.978 87.8237C79.7784 86.0233 80.7898 83.5815 80.7898 81.0354V59.5506C88.7098 53.7426 100.815 44.5362 111.414 36.4338L108.236 32.8914C81.9418 5.93465 43.6474 -10.0782 2.75141 -10.0782H-5.60059ZM35.1802 16.245C35.1796 17.1874 34.9933 18.1204 34.6321 18.9908C34.2709 19.8612 33.7418 20.6519 33.075 21.3178C32.4082 21.9837 31.6168 22.5118 30.7459 22.8718C29.875 23.2319 28.9418 23.4169 27.9994 23.4162C27.057 23.4156 26.124 23.2294 25.2536 22.8682C24.3833 22.507 23.5925 21.9779 22.9266 21.3111C22.2607 20.6442 21.7327 19.8528 21.3726 18.9819C21.0126 18.1111 20.8276 17.1778 20.8282 16.2354C20.8282 14.3322 21.5843 12.507 22.93 11.1612C24.2758 9.81548 26.101 9.05944 28.0042 9.05944C29.9074 9.05944 31.7327 9.81548 33.0784 11.1612C34.4242 12.507 35.1802 14.3322 35.1802 16.2354V16.245ZM63.7402 35.445C63.7402 37.3482 62.9842 39.1735 61.6384 40.5192C60.2927 41.865 58.4674 42.621 56.5642 42.621C54.661 42.621 52.8358 41.865 51.49 40.5192C50.1443 39.1735 49.3882 37.3482 49.3882 35.445C49.3882 33.5418 50.1443 31.7166 51.49 30.3708C52.8358 29.0251 54.661 28.269 56.5642 28.269C58.4674 28.269 60.2927 29.0251 61.6384 30.3708C62.9842 31.7166 63.7402 33.5418 63.7402 35.445ZM35.257 59.4642C35.257 61.3776 34.4969 63.2126 33.144 64.5656C31.791 65.9186 29.956 66.6786 28.0426 66.6786C26.1292 66.6786 24.2942 65.9186 22.9413 64.5656C21.5883 63.2126 20.8282 61.3776 20.8282 59.4642C20.8282 57.5509 21.5883 55.7158 22.9413 54.3629C24.2942 53.0099 26.1292 52.2498 28.0426 52.2498C29.956 52.2498 31.791 53.0099 33.144 54.3629C34.4969 55.7158 35.257 57.5509 35.257 59.4642Z" fill="#FF9900"/>
</svg>
